<svg width="55" height="55" viewBox="0 0 55 55" fill="none" xmlns="http://www.w3.org/2000/svg">
<path d="M35.5208 32.0833H33.7104L33.0688 31.4646C35.3146 28.8521 36.6667 25.4604 36.6667 21.7708C36.6667 13.5437 29.9979 6.875 21.7708 6.875C13.5438 6.875 6.875 13.5437 6.875 21.7708C6.875 29.9979 13.5438 36.6667 21.7708 36.6667C25.4604 36.6667 28.8521 35.3146 31.4646 33.0687L32.0833 33.7104V35.5208L43.5417 46.9562L46.9563 43.5417L35.5208 32.0833V32.0833ZM21.7708 32.0833C16.0646 32.0833 11.4583 27.4771 11.4583 21.7708C11.4583 16.0646 16.0646 11.4583 21.7708 11.4583C27.4771 11.4583 32.0833 16.0646 32.0833 21.7708C32.0833 27.4771 27.4771 32.0833 21.7708 32.0833Z" fill="#1266F1"/>
</svg>
