<svg width="35" height="43" viewBox="0 0 35 43" fill="none" xmlns="http://www.w3.org/2000/svg">
<path d="M17.7 42.48C13.5 42.48 10.26 42.14 7.98 41.46C5.7 40.78 4.02 39.68 2.94 38.16C1.94 36.76 1.32 34.98 1.08 32.82C0.840002 30.66 0.720001 27.44 0.720001 23.16V0.719971H12.72V25.56C12.72 27.04 12.76 28.46 12.84 29.82C12.92 30.9 13.1 31.68 13.38 32.16C13.66 32.64 14.14 32.94 14.82 33.06C15.42 33.22 16.38 33.3 17.7 33.3H19.08C19.4 33.3 19.76 33.26 20.16 33.18V42.42C19.88 42.46 19.48 42.48 18.96 42.48H17.7ZM22.68 0.719971H34.68V23.16C34.68 27.08 34.6 30.04 34.44 32.04C34.28 34.04 33.84 35.72 33.12 37.08C32.32 38.64 31.1 39.84 29.46 40.68C27.82 41.52 25.56 42.06 22.68 42.3V0.719971Z" fill="#0D0E0E"/>
</svg>
