<svg width="60" height="42" viewBox="0 0 60 42" fill="none" xmlns="http://www.w3.org/2000/svg">
<path d="M9.96 40.26C9.68 39.14 9.32 37.58 8.88 35.58L7.26 28.98L5.46 21.42L0.6 0.719971H12.54L21.06 42H10.38L9.96 40.26ZM19.38 21.36L23.88 0.719971H36.18L46.02 42H35.76L35.28 40.02L34.02 34.8L32.22 27.18C31.46 24.1 30.74 21.08 30.06 18.12H29.7L27.66 27.18L27 30.24C26.8 31.08 26.6 31.88 26.4 32.64C26.24 33.4 26.08 34.12 25.92 34.8L24.72 40.02L24.24 42H23.58L19.38 21.36ZM43.62 21L47.22 0.719971H59.16L54.24 21.42L52.44 28.98C51.68 32.06 51.16 34.26 50.88 35.58L49.74 40.26L49.32 42H48.6L43.62 21Z" fill="#0D0E0E"/>
</svg>
